<svg width="397" height="374" viewBox="0 0 397 374" fill="none" xmlns="http://www.w3.org/2000/svg">
<g clip-path="url(#clip0_48_173)">
<path d="M384.594 274.656H365.984V61.3594C365.978 55.9367 363.689 50.7379 359.618 46.9035C355.548 43.069 350.03 40.9122 344.273 40.9062H52.7266C46.9704 40.9122 41.4518 43.069 37.3816 46.9035C33.3114 50.7379 31.022 55.9367 31.0156 61.3594V274.656H12.4062C10.7611 274.656 9.18329 275.272 8.01998 276.368C6.85667 277.464 6.20313 278.95 6.20312 280.5V312.641C6.20949 318.063 8.49893 323.262 12.5691 327.097C16.6394 330.931 22.1579 333.088 27.9141 333.094H369.086C374.842 333.088 380.361 330.931 384.431 327.097C388.501 323.262 390.791 318.063 390.797 312.641V280.5C390.797 278.95 390.143 277.464 388.98 276.368C387.817 275.272 386.239 274.656 384.594 274.656ZM43.4219 61.3594C43.4239 59.0352 44.4049 56.8067 46.1494 55.1633C47.8939 53.5198 50.2594 52.5957 52.7266 52.5938H344.273C346.741 52.5957 349.106 53.5198 350.851 55.1633C352.595 56.8067 353.576 59.0352 353.578 61.3594V274.656H43.4219V61.3594ZM227.771 286.344L224.669 298.031H172.331L169.229 286.344H227.771ZM378.391 312.641C378.389 314.965 377.408 317.193 375.663 318.837C373.919 320.48 371.553 321.404 369.086 321.406H27.9141C25.4469 321.404 23.0814 320.48 21.3369 318.837C19.5924 317.193 18.6114 314.965 18.6094 312.641V286.344H156.435L161.467 305.292C161.803 306.556 162.577 307.679 163.667 308.481C164.758 309.283 166.101 309.719 167.484 309.719H229.516C230.899 309.719 232.242 309.283 233.333 308.481C234.423 307.679 235.197 306.556 235.533 305.292L240.565 286.344H378.391V312.641Z" fill="black"/>
<path d="M286.9 130.333H264.8V67.9333C264.8 66.0945 264.024 64.331 262.642 63.0307C261.261 61.7305 259.387 61 257.433 61H139.567C137.613 61 135.739 61.7305 134.358 63.0307C132.976 64.331 132.2 66.0945 132.2 67.9333V130.333H110.1C104.239 130.333 98.6175 132.525 94.4729 136.426C90.3284 140.326 88 145.617 88 151.133V248.2C88 253.717 90.3284 259.007 94.4729 262.908C98.6175 266.809 104.239 269 110.1 269H286.9C292.761 269 298.383 266.809 302.527 262.908C306.672 259.007 309 253.717 309 248.2V151.133C309 145.617 306.672 140.326 302.527 136.426C298.383 132.525 292.761 130.333 286.9 130.333ZM283.88 144.2L264.8 162.157V144.2H283.88ZM250.067 74.8667V176.024L218.464 205.768C213.072 210.576 205.927 213.256 198.5 213.256C191.073 213.256 183.928 210.576 178.536 205.768L146.933 176.024V74.8667H250.067ZM132.2 162.157L113.12 144.2H132.2V162.157ZM286.9 255.133H110.1C108.146 255.133 106.272 254.403 104.891 253.103C103.509 251.802 102.733 250.039 102.733 248.2V153.976L151.28 199.667L119.603 229.411C118.913 230.055 118.364 230.822 117.991 231.667C117.617 232.512 117.424 233.418 117.424 234.333C117.424 235.249 117.617 236.155 117.991 237C118.364 237.845 118.913 238.611 119.603 239.256C120.288 239.906 121.103 240.422 122 240.774C122.898 241.126 123.861 241.307 124.833 241.307C125.806 241.307 126.769 241.126 127.666 240.774C128.564 240.422 129.379 239.906 130.064 239.256L161.667 209.443L168.149 215.544C172.132 219.301 176.862 222.281 182.07 224.315C187.279 226.348 192.862 227.395 198.5 227.395C204.138 227.395 209.721 226.348 214.93 224.315C220.138 222.281 224.868 219.301 228.851 215.544L235.333 209.443L266.936 239.256C267.621 239.906 268.436 240.422 269.334 240.774C270.231 241.126 271.194 241.307 272.167 241.307C273.139 241.307 274.102 241.126 275 240.774C275.897 240.422 276.712 239.906 277.397 239.256C278.087 238.611 278.636 237.845 279.01 237C279.384 236.155 279.576 235.249 279.576 234.333C279.576 233.418 279.384 232.512 279.01 231.667C278.636 230.822 278.087 230.055 277.397 229.411L245.72 199.667L294.267 153.976V248.2C294.267 250.039 293.491 251.802 292.109 253.103C290.728 254.403 288.854 255.133 286.9 255.133Z" fill="black"/>
<path d="M169.3 102.8H227.7C229.636 102.8 231.493 102.073 232.862 100.779C234.231 99.485 235 97.73 235 95.9C235 94.07 234.231 92.315 232.862 91.021C231.493 89.727 229.636 89 227.7 89H169.3C167.364 89 165.507 89.727 164.138 91.021C162.769 92.315 162 94.07 162 95.9C162 97.73 162.769 99.485 164.138 100.779C165.507 102.073 167.364 102.8 169.3 102.8ZM169.3 130.4H227.7C229.636 130.4 231.493 129.673 232.862 128.379C234.231 127.085 235 125.33 235 123.5C235 121.67 234.231 119.915 232.862 118.621C231.493 117.327 229.636 116.6 227.7 116.6H169.3C167.364 116.6 165.507 117.327 164.138 118.621C162.769 119.915 162 121.67 162 123.5C162 125.33 162.769 127.085 164.138 128.379C165.507 129.673 167.364 130.4 169.3 130.4ZM169.3 158H227.7C229.636 158 231.493 157.273 232.862 155.979C234.231 154.685 235 152.93 235 151.1C235 149.27 234.231 147.515 232.862 146.221C231.493 144.927 229.636 144.2 227.7 144.2H169.3C167.364 144.2 165.507 144.927 164.138 146.221C162.769 147.515 162 149.27 162 151.1C162 152.93 162.769 154.685 164.138 155.979C165.507 157.273 167.364 158 169.3 158Z" fill="black"/>
</g>
<defs>
<clipPath id="clip0_48_173">
<rect width="397" height="374" fill="white"/>
</clipPath>
</defs>
</svg>
