<svg width="397" height="374" viewBox="0 0 397 374" fill="none" xmlns="http://www.w3.org/2000/svg">
<g clip-path="url(#clip0_48_174)">
<path d="M384.594 274.656H365.984V61.3594C365.978 55.9367 363.689 50.7379 359.618 46.9035C355.548 43.069 350.03 40.9122 344.273 40.9062H52.7266C46.9704 40.9122 41.4518 43.069 37.3816 46.9035C33.3114 50.7379 31.022 55.9367 31.0156 61.3594V274.656H12.4062C10.7611 274.656 9.18329 275.272 8.01998 276.368C6.85667 277.464 6.20313 278.95 6.20312 280.5V312.641C6.20949 318.063 8.49893 323.262 12.5691 327.097C16.6394 330.931 22.1579 333.088 27.9141 333.094H369.086C374.842 333.088 380.361 330.931 384.431 327.097C388.501 323.262 390.791 318.063 390.797 312.641V280.5C390.797 278.95 390.143 277.464 388.98 276.368C387.817 275.272 386.239 274.656 384.594 274.656ZM43.4219 61.3594C43.4239 59.0352 44.4049 56.8067 46.1494 55.1633C47.8939 53.5198 50.2594 52.5957 52.7266 52.5938H344.273C346.741 52.5957 349.106 53.5198 350.851 55.1633C352.595 56.8067 353.576 59.0352 353.578 61.3594V274.656H43.4219V61.3594ZM227.771 286.344L224.669 298.031H172.331L169.229 286.344H227.771ZM378.391 312.641C378.389 314.965 377.408 317.193 375.663 318.837C373.919 320.48 371.553 321.404 369.086 321.406H27.9141C25.4469 321.404 23.0814 320.48 21.3369 318.837C19.5924 317.193 18.6114 314.965 18.6094 312.641V286.344H156.435L161.467 305.292C161.803 306.556 162.577 307.679 163.667 308.481C164.758 309.283 166.101 309.719 167.484 309.719H229.516C230.899 309.719 232.242 309.283 233.333 308.481C234.423 307.679 235.197 306.556 235.533 305.292L240.565 286.344H378.391V312.641Z" fill="black"/>
<path d="M291.909 172.151H299.618C300.928 175.555 303.507 178.423 306.899 180.25C310.29 182.076 314.276 182.743 318.151 182.133C322.026 181.522 325.541 179.674 328.076 176.914C330.61 174.154 332 170.66 332 167.05C332 163.441 330.61 159.947 328.076 157.187C325.541 154.427 322.026 152.579 318.151 151.968C314.276 151.358 310.29 152.025 306.899 153.851C303.507 155.678 300.928 158.546 299.618 161.95H292.971C292.464 157.211 290.643 152.67 287.681 148.761C284.719 144.853 280.716 141.705 276.054 139.62C277.076 136.957 277.648 134.166 277.748 131.344H287.547C289.021 131.344 290.434 130.807 291.476 129.85C292.518 128.894 293.103 127.596 293.103 126.243V110.941H299.618C300.928 114.344 303.507 117.213 306.899 119.039C310.29 120.866 314.276 121.533 318.151 120.922C322.026 120.312 325.541 118.463 328.076 115.703C330.61 112.943 332 109.45 332 105.84C332 102.23 330.61 98.7364 328.076 95.9764C325.541 93.2165 322.026 91.368 318.151 90.7575C314.276 90.1471 310.29 90.8141 306.899 92.6406C303.507 94.4671 300.928 97.3356 299.618 100.739H287.547C286.074 100.739 284.661 101.276 283.619 102.233C282.577 103.19 281.992 104.487 281.992 105.84V121.142H276.026C274.082 116.147 270.614 111.769 266.036 108.533C261.458 105.296 255.962 103.337 250.205 102.888V102.607C250.204 97.1227 248.425 91.7626 245.093 87.2104C241.762 82.6582 237.029 79.1202 231.498 77.0475C225.967 74.9748 219.889 74.4614 214.04 75.5728C208.19 76.6841 202.833 79.3699 198.653 83.2875C194.472 79.3699 189.116 76.6841 183.266 75.5728C177.416 74.4614 171.338 74.9748 165.808 77.0475C160.277 79.1202 155.544 82.6582 152.212 87.2104C148.881 91.7626 147.101 97.1227 147.101 102.607V102.888C141.343 103.337 135.848 105.296 131.27 108.533C126.691 111.769 123.224 116.147 121.28 121.142H115.314V105.84C115.314 104.487 114.729 103.19 113.687 102.233C112.645 101.276 111.232 100.739 109.758 100.739H98.3823C97.0717 97.3356 94.4928 94.4671 91.1014 92.6406C87.71 90.8141 83.7244 90.1471 79.8492 90.7575C75.974 91.368 72.4586 93.2165 69.9243 95.9764C67.39 98.7364 66 102.23 66 105.84C66 109.45 67.39 112.943 69.9243 115.703C72.4586 118.463 75.974 120.312 79.8492 120.922C83.7244 121.533 87.71 120.866 91.1014 119.039C94.4928 117.213 97.0717 114.344 98.3823 110.941H104.202V126.243C104.202 127.596 104.787 128.894 105.829 129.85C106.871 130.807 108.285 131.344 109.758 131.344H119.557C119.658 134.166 120.229 136.957 121.252 139.62C116.589 141.705 112.586 144.853 109.624 148.761C106.663 152.67 104.841 157.211 104.334 161.95H98.3823C97.0717 158.546 94.4928 155.678 91.1014 153.851C87.71 152.025 83.7244 151.358 79.8492 151.968C75.974 152.579 72.4586 154.427 69.9243 157.187C67.39 159.947 66 163.441 66 167.05C66 170.66 67.39 174.154 69.9243 176.914C72.4586 179.674 75.974 181.522 79.8492 182.133C83.7244 182.743 87.71 182.076 91.1014 180.25C94.4928 178.423 97.0717 175.555 98.3823 172.151H105.397C106.59 175.877 108.616 179.334 111.346 182.3C114.076 185.266 117.45 187.677 121.252 189.38C119.608 193.668 119.136 198.261 119.877 202.757H109.758C108.285 202.757 106.871 203.294 105.829 204.251C104.787 205.207 104.202 206.505 104.202 207.858V223.16H98.3823C97.0717 219.757 94.4928 216.888 91.1014 215.062C87.71 213.235 83.7244 212.568 79.8492 213.179C75.974 213.789 72.4586 215.638 69.9243 218.398C67.39 221.158 66 224.651 66 228.261C66 231.871 67.39 235.365 69.9243 238.124C72.4586 240.884 75.974 242.733 79.8492 243.343C83.7244 243.954 87.71 243.287 91.1014 241.46C94.4928 239.634 97.0717 236.765 98.3823 233.362H109.758C111.232 233.362 112.645 232.825 113.687 231.868C114.729 230.911 115.314 229.614 115.314 228.261V212.958H123.94C126.402 216.668 129.783 219.793 133.807 222.078C137.831 224.364 142.386 225.746 147.101 226.112V226.393C147.101 231.877 148.881 237.237 152.212 241.79C155.544 246.342 160.277 249.88 165.808 251.953C171.338 254.025 177.416 254.539 183.266 253.427C189.116 252.316 194.472 249.63 198.653 245.712C202.833 249.63 208.19 252.316 214.04 253.427C219.889 254.539 225.967 254.025 231.498 251.953C237.029 249.88 241.762 246.342 245.093 241.79C248.425 237.237 250.204 231.877 250.205 226.393V226.112C254.92 225.746 259.474 224.364 263.499 222.078C267.523 219.793 270.903 216.668 273.366 212.958H281.992V228.261C281.992 229.614 282.577 230.911 283.619 231.868C284.661 232.825 286.074 233.362 287.547 233.362H299.618C300.928 236.765 303.507 239.634 306.899 241.46C310.29 243.287 314.276 243.954 318.151 243.343C322.026 242.733 325.541 240.884 328.076 238.124C330.61 235.365 332 231.871 332 228.261C332 224.651 330.61 221.158 328.076 218.398C325.541 215.638 322.026 213.789 318.151 213.179C314.276 212.568 310.29 213.235 306.899 215.062C303.507 216.888 300.928 219.757 299.618 223.16H293.103V207.858C293.103 206.505 292.518 205.207 291.476 204.251C290.434 203.294 289.021 202.757 287.547 202.757H277.429C278.169 198.261 277.697 193.668 276.054 189.38C279.856 187.677 283.229 185.266 285.959 182.3C288.689 179.334 290.716 175.877 291.909 172.151ZM315.327 161.95C316.426 161.95 317.5 162.249 318.414 162.809C319.327 163.37 320.04 164.166 320.46 165.098C320.881 166.03 320.991 167.056 320.776 168.046C320.562 169.035 320.033 169.944 319.256 170.657C318.479 171.371 317.489 171.856 316.411 172.053C315.333 172.25 314.216 172.149 313.201 171.763C312.186 171.377 311.318 170.723 310.708 169.884C310.097 169.046 309.771 168.059 309.771 167.05C309.773 165.698 310.359 164.402 311.401 163.446C312.442 162.489 313.854 161.951 315.327 161.95ZM315.327 100.739C316.426 100.739 317.5 101.038 318.414 101.599C319.327 102.159 320.04 102.956 320.46 103.888C320.881 104.82 320.991 105.845 320.776 106.835C320.562 107.824 320.033 108.733 319.256 109.447C318.479 110.16 317.489 110.646 316.411 110.843C315.333 111.04 314.216 110.938 313.201 110.552C312.186 110.166 311.318 109.513 310.708 108.674C310.097 107.835 309.771 106.849 309.771 105.84C309.773 104.488 310.359 103.191 311.401 102.235C312.442 101.279 313.854 100.741 315.327 100.739ZM82.6729 110.941C81.5741 110.941 80.4999 110.642 79.5862 110.081C78.6725 109.521 77.9604 108.724 77.5399 107.792C77.1194 106.86 77.0094 105.834 77.2237 104.845C77.4381 103.855 77.9673 102.946 78.7443 102.233C79.5213 101.52 80.5113 101.034 81.589 100.837C82.6667 100.64 83.7839 100.741 84.7991 101.127C85.8143 101.513 86.682 102.167 87.2925 103.006C87.903 103.845 88.2288 104.831 88.2288 105.84C88.2268 107.192 87.6408 108.488 86.5993 109.445C85.5578 110.401 84.1458 110.939 82.6729 110.941ZM82.6729 172.151C81.5741 172.151 80.4999 171.852 79.5862 171.292C78.6725 170.731 77.9604 169.935 77.5399 169.002C77.1194 168.07 77.0094 167.045 77.2237 166.055C77.4381 165.066 77.9673 164.157 78.7443 163.444C79.5213 162.73 80.5113 162.244 81.589 162.048C82.6667 161.851 83.7839 161.952 84.7991 162.338C85.8143 162.724 86.682 163.378 87.2925 164.217C87.903 165.055 88.2288 166.042 88.2288 167.05C88.2268 168.403 87.6408 169.699 86.5993 170.655C85.5578 171.611 84.1458 172.149 82.6729 172.151ZM82.6729 233.362C81.5741 233.362 80.4999 233.063 79.5862 232.502C78.6725 231.942 77.9604 231.145 77.5399 230.213C77.1194 229.281 77.0094 228.255 77.2237 227.266C77.4381 226.276 77.9673 225.368 78.7443 224.654C79.5213 223.941 80.5113 223.455 81.589 223.258C82.6667 223.061 83.7839 223.162 84.7991 223.548C85.8143 223.935 86.682 224.588 87.2925 225.427C87.903 226.266 88.2288 227.252 88.2288 228.261C88.2268 229.613 87.6408 230.91 86.5993 231.866C85.5578 232.822 84.1458 233.36 82.6729 233.362ZM193.062 235.881C190.674 239.255 187.086 241.765 182.909 242.983C178.732 244.202 174.225 244.055 170.153 242.565C166.081 241.076 162.697 238.338 160.577 234.816C158.457 231.294 157.732 227.207 158.525 223.249C161.841 221.737 164.784 219.617 167.173 217.021C169.562 214.424 171.346 211.405 172.415 208.151C172.835 206.854 172.676 205.457 171.974 204.267C171.272 203.077 170.084 202.192 168.672 201.807C167.972 201.616 167.238 201.553 166.513 201.623C165.787 201.692 165.083 201.892 164.441 202.211C163.145 202.856 162.181 203.946 161.761 205.243C160.771 208.247 158.756 210.88 156.015 212.755C153.274 214.631 149.95 215.649 146.531 215.662C146.358 215.662 146.184 215.675 146.01 215.687C142.973 215.147 140.125 213.933 137.716 212.151C135.307 210.369 133.409 208.073 132.188 205.463C130.967 202.853 130.46 200.009 130.711 197.177C130.962 194.346 131.963 191.615 133.628 189.22C134.111 188.529 134.405 187.741 134.485 186.923C134.565 186.105 134.428 185.281 134.086 184.522C133.745 183.763 133.208 183.091 132.522 182.563C131.837 182.036 131.022 181.668 130.148 181.492C125.94 180.63 122.177 178.477 119.48 175.388C116.783 172.299 115.314 168.459 115.314 164.5C115.314 160.541 116.783 156.701 119.48 153.612C122.177 150.523 125.94 148.37 130.148 147.508C131.022 147.332 131.837 146.964 132.522 146.437C133.208 145.909 133.745 145.237 134.086 144.478C134.428 143.719 134.565 142.895 134.485 142.077C134.405 141.259 134.111 140.471 133.628 139.78C131.963 137.385 130.961 134.653 130.711 131.821C130.46 128.99 130.968 126.145 132.19 123.535C133.412 120.924 135.31 118.628 137.721 116.847C140.131 115.065 142.979 113.852 146.017 113.313C146.184 113.325 146.358 113.338 146.531 113.338C149.95 113.351 153.274 114.369 156.015 116.245C158.756 118.12 160.771 120.753 161.761 123.757C162.104 124.809 162.808 125.733 163.767 126.39C164.727 127.047 165.891 127.402 167.088 127.404C167.624 127.402 168.157 127.331 168.672 127.193C170.084 126.807 171.272 125.922 171.974 124.733C172.676 123.543 172.834 122.146 172.415 120.849C171.346 117.595 169.562 114.576 167.173 111.979C164.784 109.383 161.841 107.263 158.525 105.751C157.733 101.793 158.459 97.7065 160.579 94.1852C162.699 90.664 166.083 87.926 170.154 86.437C174.225 84.9481 178.733 84.8002 182.909 86.0185C187.086 87.2369 190.674 89.7462 193.062 93.1195V235.881ZM315.327 223.16C316.426 223.16 317.5 223.459 318.414 224.02C319.327 224.58 320.04 225.377 320.46 226.309C320.881 227.241 320.991 228.267 320.776 229.256C320.562 230.246 320.033 231.155 319.256 231.868C318.479 232.581 317.489 233.067 316.411 233.264C315.333 233.461 314.216 233.36 313.201 232.974C312.186 232.588 311.318 231.934 310.708 231.095C310.097 230.256 309.771 229.27 309.771 228.261C309.773 226.909 310.359 225.612 311.401 224.656C312.442 223.7 313.854 223.162 315.327 223.16ZM267.157 181.492C266.283 181.668 265.469 182.036 264.783 182.563C264.097 183.091 263.561 183.763 263.219 184.522C262.877 185.281 262.74 186.105 262.82 186.923C262.9 187.741 263.194 188.529 263.678 189.22C265.34 191.612 266.341 194.34 266.594 197.168C266.846 199.996 266.342 202.837 265.126 205.446C263.909 208.054 262.017 210.35 259.614 212.133C257.211 213.917 254.369 215.135 251.337 215.681C251.212 215.675 251.094 215.662 250.976 215.662C247.556 215.65 244.231 214.632 241.488 212.757C238.745 210.882 236.73 208.248 235.739 205.243C235.319 203.946 234.355 202.856 233.059 202.211C231.763 201.567 230.241 201.421 228.828 201.807C227.416 202.192 226.228 203.077 225.526 204.267C224.824 205.457 224.665 206.854 225.085 208.151C226.143 211.371 227.9 214.36 230.252 216.939C232.603 219.518 235.5 221.632 238.767 223.154C238.984 224.222 239.093 225.306 239.093 226.393C239.093 230.155 237.766 233.817 235.309 236.828C232.853 239.84 229.4 242.039 225.467 243.098C221.534 244.156 217.334 244.016 213.496 242.699C209.657 241.382 206.386 238.958 204.174 235.791V93.2088C206.386 90.0417 209.657 87.618 213.496 86.3008C217.334 84.9835 221.534 84.8436 225.467 85.9021C229.4 86.9605 232.853 89.1603 235.309 92.1719C237.766 95.1835 239.093 98.8447 239.093 102.607C239.093 103.694 238.984 104.778 238.767 105.846C235.5 107.368 232.603 109.482 230.252 112.061C227.9 114.64 226.143 117.629 225.085 120.849C224.666 122.146 224.824 123.543 225.526 124.733C226.228 125.922 227.416 126.807 228.828 127.193C229.343 127.331 229.876 127.402 230.412 127.404C231.609 127.402 232.773 127.047 233.733 126.39C234.692 125.733 235.395 124.809 235.739 123.757C236.73 120.752 238.745 118.118 241.488 116.243C244.231 114.368 247.556 113.35 250.976 113.338C251.094 113.338 251.212 113.325 251.337 113.319C254.369 113.865 257.211 115.083 259.614 116.867C262.017 118.65 263.909 120.946 265.126 123.554C266.342 126.163 266.846 129.004 266.594 131.832C266.341 134.66 265.34 137.388 263.678 139.78C263.194 140.471 262.9 141.259 262.82 142.077C262.74 142.895 262.877 143.719 263.219 144.478C263.561 145.237 264.097 145.909 264.783 146.437C265.469 146.964 266.283 147.332 267.157 147.508C271.366 148.37 275.129 150.523 277.825 153.612C280.522 156.701 281.992 160.541 281.992 164.5C281.992 168.459 280.522 172.299 277.825 175.388C275.129 178.477 271.366 180.63 267.157 181.492Z" fill="black"/>
<path d="M165.887 155.026C168.676 151.743 170.283 151.263 170.59 151.201C170.823 151.369 171.021 151.576 171.173 151.81C171.151 151.776 171.131 151.74 171.113 151.704L181 147.146C180.681 146.558 177.698 141.387 171.318 141.021C166.547 140.747 161.972 143.21 157.394 148.508C155.315 147.165 153.143 145.948 150.892 144.867C149.587 144.298 148.091 144.222 146.726 144.656C145.36 145.09 144.233 145.999 143.586 147.19C142.939 148.38 142.823 149.757 143.263 151.025C143.703 152.294 144.663 153.353 145.94 153.976C149.549 155.759 152.926 157.915 156.006 160.402C160.11 163.749 165.002 168.98 165.002 174.904C165.002 176.256 165.584 177.552 166.621 178.507C167.657 179.463 169.063 180 170.529 180C171.995 180 173.401 179.463 174.438 178.507C175.474 177.552 176.057 176.256 176.057 174.904C176.057 166.797 171.28 160.057 165.887 155.026Z" fill="black"/>
<path d="M255.699 161.405C238.088 165.44 237.692 181.279 237.685 181.947C237.669 183.29 237.078 184.572 236.038 185.518C234.998 186.464 233.594 186.996 232.129 187H232.101C230.634 186.996 229.229 186.459 228.193 185.507C227.156 184.555 226.574 183.266 226.573 181.922C226.573 176.01 229.303 165.783 238.164 158.554C236.518 155.684 234.587 155.245 233.073 155.2C231.675 155.192 230.29 155.448 229.004 155.951C228.353 156.25 227.644 156.427 226.918 156.474C226.192 156.521 225.464 156.436 224.774 156.223C224.084 156.011 223.446 155.676 222.898 155.237C222.35 154.798 221.902 154.265 221.58 153.667C220.924 152.453 220.82 151.052 221.29 149.768C221.76 148.485 222.766 147.424 224.087 146.819C230.337 143.962 241.539 143.415 247.602 153.157C249.356 152.492 251.162 151.948 253.005 151.528C253.717 151.353 254.46 151.31 255.191 151.401C255.922 151.492 256.626 151.715 257.262 152.058C257.897 152.4 258.452 152.856 258.894 153.397C259.336 153.938 259.655 154.555 259.834 155.211C260.013 155.866 260.048 156.548 259.936 157.216C259.824 157.884 259.568 158.525 259.184 159.102C258.799 159.679 258.292 160.179 257.694 160.575C257.096 160.97 256.418 161.252 255.699 161.405Z" fill="black"/>
</g>
<defs>
<clipPath id="clip0_48_174">
<rect width="397" height="374" fill="white"/>
</clipPath>
</defs>
</svg>
