<svg width="397" height="374" viewBox="0 0 397 374" fill="none" xmlns="http://www.w3.org/2000/svg">
<g clip-path="url(#clip0_48_185)">
<path d="M384.594 274.656H365.984V61.3594C365.978 55.9367 363.689 50.7379 359.618 46.9035C355.548 43.069 350.03 40.9122 344.273 40.9062H52.7266C46.9704 40.9122 41.4518 43.069 37.3816 46.9035C33.3114 50.7379 31.022 55.9367 31.0156 61.3594V274.656H12.4062C10.7611 274.656 9.18329 275.272 8.01998 276.368C6.85667 277.464 6.20313 278.95 6.20312 280.5V312.641C6.20949 318.063 8.49893 323.262 12.5691 327.097C16.6394 330.931 22.1579 333.088 27.9141 333.094H369.086C374.842 333.088 380.361 330.931 384.431 327.097C388.501 323.262 390.791 318.063 390.797 312.641V280.5C390.797 278.95 390.143 277.464 388.98 276.368C387.817 275.272 386.239 274.656 384.594 274.656ZM43.4219 61.3594C43.4239 59.0352 44.4049 56.8067 46.1494 55.1633C47.8939 53.5198 50.2594 52.5957 52.7266 52.5938H344.273C346.741 52.5957 349.106 53.5198 350.851 55.1633C352.595 56.8067 353.576 59.0352 353.578 61.3594V274.656H43.4219V61.3594ZM227.771 286.344L224.669 298.031H172.331L169.229 286.344H227.771ZM378.391 312.641C378.389 314.965 377.408 317.193 375.663 318.837C373.919 320.48 371.553 321.404 369.086 321.406H27.9141C25.4469 321.404 23.0814 320.48 21.3369 318.837C19.5924 317.193 18.6114 314.965 18.6094 312.641V286.344H156.435L161.467 305.292C161.803 306.556 162.577 307.679 163.667 308.481C164.758 309.283 166.101 309.719 167.484 309.719H229.516C230.899 309.719 232.242 309.283 233.333 308.481C234.423 307.679 235.197 306.556 235.533 305.292L240.565 286.344H378.391V312.641Z" fill="black"/>
<path d="M256.95 72H140.05C133.406 72 127.035 74.0996 122.337 77.8369C117.639 81.5743 115 86.6432 115 91.9286V238.071C115 243.357 117.639 248.426 122.337 252.163C127.035 255.9 133.406 258 140.05 258H256.95C263.594 258 269.965 255.9 274.663 252.163C279.361 248.426 282 243.357 282 238.071V91.9286C282 86.6432 279.361 81.5743 274.663 77.8369C269.965 74.0996 263.594 72 256.95 72ZM265.3 238.071C265.3 239.833 264.42 241.523 262.854 242.769C261.288 244.014 259.165 244.714 256.95 244.714H140.05C137.835 244.714 135.712 244.014 134.146 242.769C132.58 241.523 131.7 239.833 131.7 238.071V91.9286C131.7 90.1668 132.58 88.4771 134.146 87.2314C135.712 85.9856 137.835 85.2857 140.05 85.2857H256.95C259.165 85.2857 261.288 85.9856 262.854 87.2314C264.42 88.4771 265.3 90.1668 265.3 91.9286V238.071Z" fill="black"/>
<path d="M240.25 111.856H156.75C154.535 111.856 152.412 112.556 150.846 113.802C149.28 115.048 148.4 116.738 148.4 118.499C148.4 120.261 149.28 121.951 150.846 123.197C152.412 124.442 154.535 125.142 156.75 125.142H240.25C242.465 125.142 244.588 124.442 246.154 123.197C247.72 121.951 248.6 120.261 248.6 118.499C248.6 116.738 247.72 115.048 246.154 113.802C244.588 112.556 242.465 111.856 240.25 111.856ZM240.25 138.428H156.75C154.535 138.428 152.412 139.128 150.846 140.374C149.28 141.619 148.4 143.309 148.4 145.071C148.4 146.833 149.28 148.522 150.846 149.768C152.412 151.014 154.535 151.714 156.75 151.714H240.25C242.465 151.714 244.588 151.014 246.154 149.768C247.72 148.522 248.6 146.833 248.6 145.071C248.6 143.309 247.72 141.619 246.154 140.374C244.588 139.128 242.465 138.428 240.25 138.428ZM240.25 164.999H156.75C154.535 164.999 152.412 165.699 150.846 166.945C149.28 168.191 148.4 169.88 148.4 171.642C148.4 173.404 149.28 175.094 150.846 176.339C152.412 177.585 154.535 178.285 156.75 178.285H240.25C242.465 178.285 244.588 177.585 246.154 176.339C247.72 175.094 248.6 173.404 248.6 171.642C248.6 169.88 247.72 168.191 246.154 166.945C244.588 165.699 242.465 164.999 240.25 164.999ZM235.791 209.613C234.259 208.518 232.272 207.913 230.213 207.913C228.154 207.913 226.168 208.518 224.636 209.613L220.21 212.828L215.785 209.653C214.251 208.553 212.259 207.944 210.194 207.944C208.129 207.944 206.138 208.553 204.604 209.653L200.187 212.821L195.77 209.653C194.111 208.593 192.007 208.076 189.886 208.209C187.765 208.341 185.788 209.113 184.358 210.366C182.928 211.618 182.153 213.258 182.191 214.951C182.229 216.643 183.078 218.26 184.564 219.471L194.584 226.645C196.118 227.745 198.109 228.353 200.174 228.353C202.239 228.353 204.231 227.745 205.765 226.645L210.165 223.483L214.582 226.645C216.115 227.743 218.105 228.35 220.168 228.35C222.231 228.35 224.221 227.743 225.754 226.645L230.222 223.456L234.681 226.645C235.471 227.315 236.428 227.847 237.49 228.207C238.552 228.568 239.696 228.749 240.851 228.74C242.006 228.731 243.145 228.531 244.198 228.154C245.251 227.776 246.194 227.229 246.967 226.547C247.741 225.865 248.328 225.062 248.692 224.19C249.056 223.318 249.188 222.396 249.081 221.481C248.974 220.567 248.63 219.68 248.07 218.876C247.51 218.073 246.746 217.37 245.828 216.814L235.791 209.613Z" fill="black"/>
</g>
<defs>
<clipPath id="clip0_48_185">
<rect width="397" height="374" fill="white"/>
</clipPath>
</defs>
</svg>
